<?xml version="1.0" encoding="utf-8"?>
<!-- Generator: Adobe Illustrator 22.0.1, SVG Export Plug-In . SVG Version: 6.00 Build 0)  -->
<svg version="1.1" id="Layer_1" xmlns="http://www.w3.org/2000/svg" xmlns:xlink="http://www.w3.org/1999/xlink" x="0px" y="0px"
	 viewBox="0 0 1000 1000" style="enable-background:new 0 0 1000 1000;" xml:space="preserve">
<style type="text/css">
	.st0{display:none;fill:#808184;}
	.st1{display:none;fill:#EC1C24;}
	.st2{fill:#2E318F;}
	.st3{fill:#BD663A;}
	.st4{fill:#EFA22B;}
	.st5{fill:#00A5DB;}
	.st6{fill:#B7252E;}
	.st7{fill:#FFFFFF;}
	.st8{fill:#006093;}
</style>
<g>
	<polygon class="st0" points="513.8,396 515.7,396 515.7,398.6 513.8,398.6 513.8,396 513.8,396 	"/>
	<polygon class="st0" points="509.6,396 511.5,396 511.5,398.6 509.6,398.6 509.6,396 509.6,396 	"/>
	<polygon class="st0" points="518,396 519.9,396 519.9,398.6 518,398.6 518,396 518,396 	"/>
	<polygon class="st0" points="522.2,396 524.1,396 524.1,398.6 522.2,398.6 522.2,396 522.2,396 	"/>
	<polygon class="st0" points="513.8,400.3 515.7,400.3 515.7,402.8 513.8,402.8 513.8,400.3 513.8,400.3 	"/>
	<polygon class="st0" points="509.6,400.3 511.5,400.3 511.5,402.8 509.6,402.8 509.6,400.3 509.6,400.3 	"/>
	<polygon class="st0" points="518,400.3 519.9,400.3 519.9,402.8 518,402.8 518,400.3 518,400.3 	"/>
	<polygon class="st0" points="522.2,400.3 524.1,400.3 524.1,402.8 522.2,402.8 522.2,400.3 522.2,400.3 	"/>
	<polygon class="st0" points="513.8,391.7 515.7,391.7 515.7,394.3 513.8,394.3 513.8,391.7 513.8,391.7 	"/>
	<polygon class="st1" points="509.6,387.5 511.5,387.5 511.5,394.3 509.6,394.3 509.6,387.5 509.6,387.5 	"/>
	<polygon class="st0" points="518,391.7 519.9,391.7 519.9,394.3 518,394.3 518,391.7 518,391.7 	"/>
	<polygon class="st0" points="513.8,387.5 515.7,387.5 515.7,390.1 513.8,390.1 513.8,387.5 513.8,387.5 	"/>
	<polygon class="st0" points="518,387.5 519.9,387.5 519.9,390.1 518,390.1 518,387.5 518,387.5 	"/>
	<polygon class="st1" points="513.8,382.2 515.7,382.2 515.7,385.8 513.8,385.8 513.8,382.2 513.8,382.2 	"/>
	<polygon class="st0" points="513.8,404.5 515.7,404.5 515.7,408.2 513.8,408.2 513.8,404.5 513.8,404.5 	"/>
	<polygon class="st0" points="509.6,404.5 511.5,404.5 511.5,408.7 509.6,408.7 509.6,404.5 509.6,404.5 	"/>
	<polygon class="st0" points="518,404.5 519.9,404.5 519.9,407.7 518,407.7 518,404.5 518,404.5 	"/>
	<polygon class="st1" points="505.4,396 507.3,396 507.3,409.5 505.4,409.5 505.4,396 505.4,396 	"/>
	<g>
		<polygon class="st0" points="522.2,404.5 524.1,404.5 524.1,407.2 522.2,407.2 522.2,404.5 522.2,404.5 		"/>
	</g>
	<path class="st1" d="M524.5,411.3c-0.3,0.3-0.6,0-0.9,0.2c0,0,0-0.2-0.1-0.1c-0.3,0.3-0.7,0.1-1.1-0.1l0-0.1
		c-0.1,0-0.2,0.1-0.2,0.1l0-0.1c0,0.1-0.1,0-0.2,0.1l-0.1-0.2l0,0.1c-0.1,0.3-0.3,0-0.4,0.1l0-0.1c-0.2,0.2-0.5,0.1-0.8,0.2l0-0.2
		c0,0.1-0.1,0.2-0.2,0.2c0-0.1-0.1,0.1-0.2,0l0,0c-0.1,0.1-0.1-0.1-0.1,0.1l0-0.1c0,0.2-0.1-0.1-0.1,0v0l-0.1,0l0,0
		c-0.1,0-0.2-0.1-0.2,0.1c0-0.1,0.1,0,0-0.2c-0.4,0.1-0.7,0.1-1.1,0.1l-0.1-0.1l-0.2,0.1l0-0.1c-0.1-0.1-0.1,0.2-0.1,0.1l0-0.1
		c-0.1,0.1-0.1,0.1-0.2,0.1l0-0.1c-0.1,0.1-0.1,0-0.2,0.1l0-0.1c-0.1-0.1,0,0.2-0.1,0.1l0-0.1c-0.1,0.2-0.2,0.1-0.3,0.2l0,0l-0.3,0
		c0,0,0-0.2-0.1-0.2c0,0.2-0.2,0.1-0.1,0.3c-0.1,0-0.2-0.1-0.3,0c0-0.1,0-0.2,0-0.2l-0.1-0.1c0-0.1,0.1,0,0-0.1l-0.2,0.1
		c-0.1,0.1-0.1,0.3-0.2,0.3l0-0.2l-0.1,0.3c0,0,0-0.1-0.1-0.1l0,0.1c0,0-0.1,0-0.2-0.1l0-0.1l-0.1,0.1l0,0c0,0-0.1,0.1-0.1,0.2
		c0,0,0-0.1,0-0.1l-0.2,0.1l0-0.1l-0.3,0.2c0,0.1,0-0.1,0-0.1c-0.1-0.1-0.3,0.2-0.4,0l0,0.1c-0.1,0-0.1-0.1-0.1-0.1c0-0.1,0,0-0.1,0
		c0,0,0,0,0,0c-0.1,0.1-0.3,0.2-0.4,0.1c0,0-0.1,0.2-0.1,0.2l0-0.1c0-0.1-0.1,0-0.1-0.1c-0.1,0.1,0.2-0.1,0.2,0c0-0.1-0.1,0.2-0.1,0
		c-0.1,0-0.1,0.1-0.2,0c0,0,0-0.1,0-0.1l-0.1,0.1l0,0c0,0.1-0.1,0,0,0.1c0-0.1-0.1,0.1-0.1-0.1v-0.1l-0.1,0.2l0-0.1
		c0,0.2-0.1,0-0.1,0.2c-0.1-0.1-0.2,0-0.2-0.1c-0.1,0.1-0.1,0.1-0.2,0.1l0-0.1c0-0.1-0.1,0-0.1,0c0,0-0.1-0.1-0.2-0.2l0,0.2
		c-0.1-0.2-0.2,0.1-0.2,0c0,0,0.1-0.1,0-0.2c-0.1-0.2-0.1,0.2-0.2,0.1l0,0.2c-0.1-0.1-0.1,0.1-0.1-0.1c0,0.1-0.1,0-0.1,0.1
		c-0.2-0.1-0.3,0.1-0.5-0.2l-0.1,0.1c0,0.1,0-0.1,0.1,0l0,0.1c0,0-0.1,0-0.1-0.2c-0.1-0.1-0.1,0.3-0.2,0.2l-0.1-0.1l-0.1,0.1
		c-0.1,0-0.1-0.1-0.1-0.3l-0.1,0.1l-0.1-0.1c0.1,0.1,0,0.1,0,0.1l0,0l-0.1,0l0.1,0.1l-0.1,0.1c0-0.1-0.1-0.1-0.1-0.1l0,0.1
		c0-0.1-0.1,0,0-0.1l0.1,0c0,0,0-0.1-0.1-0.1c0,0.1,0,0.2,0,0.2l0-0.1l-0.1,0l0,0.1l0,0c0,0.1-0.1,0.1-0.1,0.2l-0.1-0.1l0,0
		c-0.1,0-0.1,0-0.1,0.1v0l-0.1,0.1c-0.1-0.1-0.1-0.4-0.1-0.2c-0.1,0-0.1,0.2,0,0.3c-0.1,0-0.2,0.1-0.3,0l0,0.1c-0.2,0-0.3,0.2-0.5,0
		l0-0.2c0,0.1-0.1-0.1,0,0.1l0.1,0.2c-0.1,0.1-0.2,0.1-0.3,0l0,0.1c0-0.1-0.1-0.1-0.1-0.1l0,0.1l-0.1-0.1c0,0,0,0.2-0.1,0.1l0-0.1
		c0,0.1-0.1,0.2-0.2,0.2l-0.1-0.1l0,0.1l-0.2-0.2c-0.1,0.3-0.3,0.4-0.5,0.4l0-0.1c-0.1,0,0,0.1,0,0.1l-0.1-0.2
		c-0.1,0-0.1,0.1-0.1,0.2c0,0.1,0-0.1,0,0c0,0-0.1,0-0.1,0.1l-0.1-0.2l0,0.1c-0.1-0.1,0-0.3-0.1-0.5l0,0c-0.1-0.1,0.1-0.2,0-0.2
		c0,0.1,0,0.3,0,0.3c-0.1,0.1,0,0.3-0.1,0.3c0-0.1,0.1,0,0-0.1c-0.1-0.1-0.1,0.1-0.1,0.1l0,0.2l-0.1-0.1c0,0.1,0,0.2,0,0.2
		c0,0.2-0.1,0-0.1,0.1c-0.1-0.1,0-0.3-0.1-0.3c0,0.1,0,0.2,0,0.3l-0.1-0.2c-0.1-0.1,0,0.2-0.1,0l0,0.1l-0.1-0.1c0,0-0.1,0.2-0.1,0
		c0,0-0.1,0,0,0.1c0.1,0.1,0-0.1,0.1,0c-0.1-0.1-0.1,0-0.1,0.1l0-0.1l0,0.1l0-0.1l0,0.1c-0.1,0.1-0.1-0.2-0.1-0.1l0-0.1l-0.1,0
		l0,0.3c0,0.1-0.1-0.1-0.1,0l0-0.1c0,0-0.1-0.1-0.2-0.1c0,0,0,0.2,0,0.2l-0.1-0.1l0,0.2l-0.2-0.2l0-0.2l0,0c0-0.1-0.1-0.1-0.1-0.2
		l-0.1,0.1c0.2,0.2,0,0.3,0.1,0.5c-0.1,0.1-0.3-0.4-0.2-0.1c0,0,0.1,0.2,0.1,0.1c-0.1,0,0,0.2-0.1,0.2c0-0.1-0.1-0.2-0.1-0.3
		c0,0.1,0.1,0,0.1,0c-0.1-0.1-0.1-0.2-0.1-0.2c0,0-0.1,0.1,0,0.2c0,0.1,0.1,0,0.1,0.1c-0.1,0.1-0.1-0.1-0.1,0.1c0,0,0.1,0.1,0.1,0.1
		l0,0.1l0-0.1c-0.1,0,0,0.1-0.1,0.2l-0.1-0.1c0-0.1,0.1,0,0-0.2l-0.1,0.1l0-0.1c0,0-0.2-0.2-0.2-0.1l0.1,0.1l-0.1,0.2
		c-0.1-0.1-0.1,0-0.1-0.1c0.1,0.1,0.2,0,0.2-0.1c-0.1-0.1,0.1,0,0-0.2c-0.1,0-0.2-0.1-0.2-0.2l0,0.1l0.1,0.2c-0.1,0-0.1,0.1-0.1,0.2
		l-0.1-0.2l-0.3,0.1c0.1,0.1-0.1,0.1,0.1,0.2c0.1,0,0.2,0.1,0.2,0.2l-0.1-0.1c0,0.1-0.1-0.1-0.1,0.1c0-0.1-0.1-0.2-0.2-0.3
		c0,0.1-0.1-0.1-0.1,0l-0.1,0.3c-0.2,0-0.2,0.2-0.2,0.2c-0.1,0-0.2-0.2-0.2-0.1c0,0,0.2,0.1,0,0.1l0,0c0,0-0.2,0-0.1,0.2l-0.1-0.1
		l0,0.1l-0.1-0.1c-0.1,0-0.1,0.1-0.1,0.2l0.1,0c0,0.1-0.1,0.1-0.1,0.2l-0.1,0l0,0.1c-0.1,0-0.2,0-0.1,0l-0.2-0.2l0.2,0.1
		c0.1,0,0.1-0.1,0-0.1l0,0.1c-0.1,0-0.1-0.1-0.2-0.2l0,0.1v-0.2l0.1,0.1c-0.1-0.1-0.1-0.2,0-0.2c0.2,0.1,0-0.2,0.2-0.2l0.1,0.3
		l0.1,0c0-0.1-0.1-0.2-0.1-0.3l0.1,0.1c0-0.1-0.1-0.2,0-0.2l0.4-0.2l0.1,0.1c-0.1-0.2,0.1-0.2,0.2-0.3c0.2,0,0.2-0.2,0.4-0.1
		l0.6-0.4l0,0.1c0-0.1,0.1,0.1,0.1,0c-0.1-0.1,0-0.2,0-0.2c0.1,0,0.2-0.1,0.3-0.3l0,0.1c0-0.2,0.2-0.1,0.3-0.1l0.1,0.1
		c0-0.2,0.1-0.2,0.1-0.3l0.3,0c0.2-0.3,0.5-0.2,0.8-0.5l0,0.1c0.2-0.3,0.6-0.2,0.8-0.4l0,0.2c0.1,0,0.2-0.1,0.1-0.2
		c0.1,0,0.2-0.1,0.2,0c0.1,0,0.1-0.1,0.1-0.1l0.4,0l0,0l0,0.1c0-0.1,0.2,0,0.1-0.2c0.2,0.1,0.3-0.2,0.5,0l0-0.1
		c0.1,0,0.3,0.1,0.4-0.1l0,0.1l0-0.1c0.2-0.2,0.5,0,0.7,0c0.3-0.2,0.7-0.1,1.1-0.2l0,0c0.1-0.2,0.3,0.1,0.4-0.1l0.1,0.1
		c0.1-0.1,0.3,0.1,0.4-0.1l0,0c0.1,0.1,0.2-0.1,0.4,0l0,0.1c0.1,0.1,0.1-0.2,0.2,0l0-0.1c0.3,0,0.6-0.1,1-0.2c0.2,0.1,0,0.4,0.2,0.2
		l0,0c0.1-0.1,0.1,0.2,0.2,0.1c0-0.1,0-0.1,0-0.2c0.1,0.1,0.2,0.2,0.3,0.1l0,0.1c0.1-0.2,0.3-0.1,0.4-0.3l2.1-0.3
		c0.7,0,1.4-0.1,2.1,0c0.2,0.2,0.2,0.2,0.4,0.1l0,0.1c0-0.1,0.1,0,0.1-0.1l0.8,0l0,0.1l0.1-0.1l0,0l0-0.1c0.7-0.1,1.3,0.2,2,0.2
		c0.2,0.1,0.4,0,0.5,0c0.5,0.2,0.9,0.4,1.5,0.3C524.8,410.8,524.7,411.2,524.5,411.3L524.5,411.3L524.5,411.3z"/>
	<path class="st1" d="M505.9,414C506,414,506,413.9,505.9,414C506,413.9,506,414.1,505.9,414L505.9,414L505.9,414z"/>
	<polygon class="st1" points="506.2,413.8 506.3,413.7 506.3,413.8 506.2,413.8 506.2,413.8 	"/>
	<polygon class="st1" points="512.6,412.1 512.6,412.2 512.6,412.1 512.6,412.1 512.6,412.1 	"/>
	<path class="st1" d="M515.6,411.9C515.6,411.8,515.6,411.9,515.6,411.9L515.6,411.9L515.6,411.9L515.6,411.9z"/>
	<polygon class="st1" points="517.1,411.5 517.1,411.5 517.1,411.4 517.1,411.5 517.1,411.5 	"/>
	<path class="st1" d="M418.5,386.8c0.1,0.1,0.2,0.2,0.4,0.2c0.1,0.1,0.3,0.1,0.4,0.1c0.2,0,0.3,0,0.4-0.1c0.1-0.1,0.3-0.1,0.4-0.2
		c0.1-0.1,0.2-0.2,0.2-0.4c0.1-0.1,0.1-0.3,0.1-0.4c0-0.3-0.1-0.6-0.3-0.8c-0.2-0.2-0.5-0.3-0.8-0.3c-0.3,0-0.6,0.1-0.8,0.3
		c-0.2,0.2-0.3,0.5-0.3,0.8c0,0.2,0,0.3,0.1,0.4C418.4,386.5,418.4,386.6,418.5,386.8L418.5,386.8z"/>
	<path class="st1" d="M421.4,386.8c0.1,0.1,0.2,0.2,0.4,0.2c0.1,0.1,0.3,0.1,0.4,0.1c0.2,0,0.3,0,0.4-0.1c0.1-0.1,0.3-0.1,0.4-0.2
		c0.1-0.1,0.2-0.2,0.2-0.4c0.1-0.1,0.1-0.3,0.1-0.4c0-0.3-0.1-0.6-0.3-0.8c-0.2-0.2-0.5-0.3-0.8-0.3c-0.3,0-0.6,0.1-0.8,0.3
		c-0.2,0.2-0.3,0.5-0.3,0.8c0,0.2,0,0.3,0.1,0.4C421.3,386.5,421.3,386.6,421.4,386.8L421.4,386.8z"/>
	<path class="st1" d="M387.8,397.9c-0.1-0.1-0.2-0.2-0.3-0.2c-0.1-0.1-0.3-0.1-0.4-0.1c-0.3,0-0.6,0.1-0.8,0.3
		c-0.2,0.2-0.3,0.5-0.3,0.8c0,0.1,0,0.3,0.1,0.4c0.1,0.1,0.1,0.2,0.2,0.3c0.1,0.1,0.2,0.2,0.3,0.2c0.1,0.1,0.3,0.1,0.4,0.1
		c0.2,0,0.3,0,0.4-0.1c0.1-0.1,0.2-0.1,0.3-0.2c0.1-0.1,0.2-0.2,0.2-0.3c0.1-0.1,0.1-0.3,0.1-0.4c0-0.2,0-0.3-0.1-0.4
		C388,398.1,387.9,398,387.8,397.9L387.8,397.9z"/>
	<path class="st1" d="M390.9,397.9c-0.1-0.1-0.2-0.2-0.3-0.2c-0.1-0.1-0.3-0.1-0.4-0.1c-0.3,0-0.6,0.1-0.8,0.3
		c-0.2,0.2-0.3,0.5-0.3,0.8c0,0.1,0,0.3,0.1,0.4c0.1,0.1,0.1,0.2,0.2,0.3c0.1,0.1,0.2,0.2,0.3,0.2c0.1,0.1,0.3,0.1,0.4,0.1
		c0.2,0,0.3,0,0.4-0.1c0.1-0.1,0.2-0.1,0.3-0.2c0.1-0.1,0.2-0.2,0.2-0.3c0.1-0.1,0.1-0.3,0.1-0.4c0-0.2,0-0.3-0.1-0.4
		C391,398.1,391,398,390.9,397.9L390.9,397.9z"/>
	<path class="st1" d="M414.4,391.7c-0.2,0.3-0.4,0.6-0.7,0.9c-0.3,0.3-0.6,0.5-1,0.7c-0.4,0.2-0.8,0.4-1.3,0.5
		c-0.2-0.3-0.4-0.6-0.6-0.9c-0.3-0.3-0.6-0.6-0.9-1c-0.3-0.3-0.7-0.6-1-0.9c-0.3-0.3-0.7-0.6-1-0.8c0.5-0.1,1-0.1,1.6-0.2
		c0.6,0,1.2-0.1,1.8-0.1c0.4,0,0.8,0,1.1,0c0.4,0,0.7,0.1,1,0.1c0.3,0.1,0.6,0.1,0.8,0.2c0.2,0.1,0.3,0.1,0.4,0.2
		C414.6,391,414.5,391.3,414.4,391.7L414.4,391.7z M400.8,394.3c-0.2,0.3-0.4,0.6-0.7,0.8c-0.3,0.2-0.6,0.4-1,0.6
		c-0.4,0.1-0.8,0.2-1.2,0.2c-0.4,0-0.8-0.1-1.2-0.2c-0.4-0.1-0.7-0.3-1-0.6c-0.3-0.2-0.5-0.5-0.6-0.8c-0.2-0.3-0.2-0.7-0.2-1
		c0-0.4,0.1-0.7,0.2-1c0.2-0.3,0.4-0.6,0.7-0.8c0.3-0.2,0.6-0.4,1-0.6c0.4-0.1,0.8-0.2,1.2-0.2c0.4,0,0.8,0.1,1.2,0.2
		c0.4,0.1,0.7,0.3,1,0.6c0.3,0.2,0.5,0.5,0.7,0.8c0.2,0.3,0.2,0.7,0.2,1C401.1,393.6,401,394,400.8,394.3L400.8,394.3z M430.8,383.4
		v10.5h-1.9h-0.2h-0.6v-10.5h-2.3v10.5h-2h-0.1h-1.5v-5.3h-2.3v5.3H418h-0.1h-2.2c0.6-0.5,0.6-0.7,0.9-1.3c0.3-0.6,0.5-1.4,0.5-2.2
		c0-0.5-0.2-0.9-0.5-1.2c-0.3-0.3-0.7-0.6-1.2-0.8c-0.5-0.2-1.1-0.3-1.8-0.4c-0.7-0.1-1.4-0.1-2.1-0.1c-0.6,0-1.1,0-1.7,0.1
		c-0.6,0-1.1,0.1-1.7,0.2c-0.5,0.1-1,0.2-1.5,0.3c-0.4,0.1-0.8,0.2-1.1,0.3v2c0.1,0.1,0.3,0.2,0.5,0.4c0.2,0.2,0.4,0.3,0.7,0.5
		c0.2,0.2,0.5,0.4,0.7,0.6c0.3,0.2,0.5,0.4,0.8,0.7c0.2,0.2,0.1,0,0.3,0.3c0.2,0.2,0.4,0.4,0.6,0.6h-4.6h-0.2h-1.2
		c0-0.2,0-0.3,0.1-0.5c0-0.2,0-0.4,0-0.5c0-0.7-0.1-0.9-0.4-1.4c-0.3-0.6-0.6-1.1-1.1-1.5c-0.5-0.4-1-0.8-1.6-1
		c-0.6-0.2-1.3-0.4-2-0.4c-0.7,0-1.4,0.1-2,0.4c-0.6,0.2-1.2,0.6-1.6,1c-0.5,0.4-0.8,0.9-1.1,1.5c-0.3,0.6-0.4,1.2-0.4,1.8
		c0,0.3,0,0.2,0,0.6h-1.1h-0.2h-1.9v-5.3h-2.3v5.3H386h-0.2h-1.4c0.1-0.5,0.1-0.6,0.1-1.1c0-0.4,0-0.3,0-0.7l0-3.1h-2.3l0,3.2
		c0,0.5,0,0.9-0.1,1.3c0,0.4-0.1,0.8-0.3,1.3c-0.1,0.5-0.3,0.9-0.6,1.3c-0.2,0.4-0.5,0.7-0.8,1c-0.3,0.3-0.7,0.5-1.1,0.7
		c-0.4,0.2-0.9,0.2-1.4,0.2c-0.2,0-0.5,0-0.7-0.1c-0.2,0-0.5-0.1-0.8-0.2l-0.1,1.8c0.4,0.1,0.7,0.2,1.1,0.3c0.4,0.1,0.7,0.1,1,0.1
		c0.7,0,1.4-0.1,2.1-0.4c0.6-0.3,1.2-0.6,1.7-1.1c0.3-0.3,0.6-0.7,0.9-1c0.3-0.4,0.5-0.8,0.7-1.2h1.9h0.2h5.7h0.2h2.1
		c0.5,0.6,1.1,1,1.8,1.3c0.7,0.3,1.4,0.5,2.3,0.5c0.8,0,1.6-0.2,2.3-0.5c0.7-0.3,1.3-0.8,1.8-1.3h2.2h0.2h13.4h0.1h5.8h0.1h4.9h0.2
		h3.2c0.3,0,0.5-0.1,0.7-0.3c0.2-0.2,0.3-0.4,0.3-0.7v-11.8H430.8L430.8,383.4z"/>
	<path class="st1" d="M454.4,397.9c-0.1-0.1-0.2-0.2-0.4-0.2c-0.1-0.1-0.3-0.1-0.4-0.1c-0.3,0-0.6,0.1-0.8,0.3
		c-0.2,0.2-0.3,0.5-0.3,0.8c0,0.2,0,0.3,0.1,0.4c0.1,0.1,0.1,0.3,0.2,0.4c0.1,0.1,0.2,0.2,0.4,0.2c0.1,0.1,0.3,0.1,0.4,0.1
		c0.2,0,0.3,0,0.4-0.1c0.1-0.1,0.3-0.1,0.4-0.2c0.1-0.1,0.2-0.2,0.2-0.4c0.1-0.1,0.1-0.3,0.1-0.4c0-0.2,0-0.3-0.1-0.4
		C454.6,398.1,454.5,398,454.4,397.9L454.4,397.9z"/>
	<path class="st1" d="M457.5,397.9c-0.1-0.1-0.2-0.2-0.4-0.2c-0.1-0.1-0.3-0.1-0.4-0.1c-0.3,0-0.6,0.1-0.8,0.3
		c-0.2,0.2-0.3,0.5-0.3,0.8c0,0.2,0,0.3,0.1,0.4c0.1,0.1,0.1,0.3,0.2,0.4c0.1,0.1,0.2,0.2,0.4,0.2c0.1,0.1,0.3,0.1,0.4,0.1
		c0.2,0,0.3,0,0.4-0.1c0.1-0.1,0.3-0.1,0.4-0.2c0.1-0.1,0.2-0.2,0.2-0.4c0.1-0.1,0.1-0.3,0.1-0.4c0-0.2,0-0.3-0.1-0.4
		C457.7,398.1,457.6,398,457.5,397.9L457.5,397.9z"/>
	<path class="st1" d="M441.3,393.9c0.3-2.6,1.6-3.6,3.8-3.7c0.5,0,0.9,0.1,1.3,0.3c0.4,0.2,0.8,0.4,1.2,0.8c0.3,0.3,0.6,0.8,0.9,1.3
		c0.2,0.5,0.4,0.7,0.5,1.4L441.3,393.9L441.3,393.9z M491.5,383.4v10.5h-1.9h-0.2h-1.3c-0.1-0.6-0.2-1.1-0.4-1.6
		c-0.2-0.5-0.5-0.9-0.8-1.3c-0.3-0.4-0.7-0.8-1.2-1.1c-0.5-0.3-0.9-0.6-1.5-0.8c-0.5-0.2-1.1-0.4-1.7-0.5c-0.6-0.1-1.2-0.2-1.8-0.3
		c-0.6,0-1.3,0-1.9,0c-0.6,0.1-1.2,0.2-1.8,0.3l0.1,2.3c0.6-0.2,1.1-0.3,1.7-0.4c0.6-0.1,1.2-0.1,1.8,0c0.6,0,1.2,0.1,1.8,0.3
		c0.6,0.1,1.2,0.4,1.7,0.7c0.5,0.3,0.9,0.7,1.3,1.1c0.4,0.4,0.5,0.4,0.6,1.2h-11.1h-0.2h-1c0-0.3-0.1-0.6-0.2-1
		c-0.1-0.4-0.2-0.8-0.4-1.2c-0.2-0.4-0.4-0.8-0.8-1.2c-0.3-0.4-0.7-0.7-1.2-1c-0.5-0.3-1.1-0.5-1.8-0.7c-0.7-0.2-1.5-0.3-2.5-0.3
		h-4.1c0.5-0.7,0.5-0.7,1.1-1.2c0.6-0.5,1.3-0.7,2-1c0.5-0.1,1-0.3,1.4-0.3c0.5-0.1,1-0.1,1.4-0.2c0.5,0,0.9-0.1,1.3-0.1
		c0.4,0,0.8,0,1.1,0v-2.3c-0.4,0-0.8,0-1.2,0c-0.4,0-0.9,0-1.4,0.1c-0.5,0-1,0.1-1.6,0.2c-0.5,0.1-1.1,0.2-1.6,0.4
		c-0.5,0.2-1.1,0.4-1.6,0.7c-0.5,0.3-1,0.6-1.5,1c-0.5,0.4-0.9,0.8-1.3,1.3c-0.4,0.5-0.8,1-1,1.7c-0.1,0.5-0.1,0.8-0.1,1
		c0,0.2,0.1,0.4,0.2,0.5c0.1,0.2,0.3,0.3,0.5,0.4c0.2,0.1,0.4,0.1,0.7,0.1v0h5.6c0.7,0,1.2,0.1,1.7,0.2c0.5,0.1,0.7,0.3,1.1,0.5
		c0.4,0.2,0.7,0.4,0.9,0.6c0.2,0.2,0.4,0.5,0.6,0.7c0.1,0.3,0.3,0.5,0.3,0.8c0.1,0.3,0,0.1,0.1,0.3h-13.2h-0.2h-1.9v-5.3h-2.1v5.3
		h-1.7h-0.2h-1.2c-0.1-1-0.3-1.5-0.7-2.3c-0.4-0.8-0.8-1.4-1.4-1.9c-0.5-0.5-1.2-0.9-1.8-1.2c-0.7-0.3-1.4-0.4-2-0.4
		c-0.7,0-1.4,0.1-2.1,0.4c-0.7,0.3-1.3,0.7-1.9,1.2c-0.6,0.6-1,1.2-1.4,2.1c-0.4,0.8-0.6,1.6-0.6,2.7c-0.4,0.2-0.7,0.4-0.9,0.6
		c-0.3,0.2-0.7,0.7-0.9,1c-0.2,0.3-0.3,0.6-0.4,0.9c-0.1,0.3-0.1,0.7-0.1,1.1c0,0.6,0.1,1.3,0.4,2c0.3,0.7,0.6,1.3,1.2,1.9l1.6-1.2
		c-0.4-0.4-0.6-0.9-0.8-1.4c-0.2-0.5-0.3-0.9-0.3-1.4c0-0.3,0-0.5,0.1-0.7c0.1-0.2,0.2-0.4,0.4-0.6c0.2-0.2,0.4-0.3,0.7-0.4
		c0.3-0.1,0.6-0.2,1.1-0.2h11.1h0.2h5.7h0.2h16.4h0.2h14.5h0.2h3.2c0.3,0,0.5-0.1,0.7-0.3c0.2-0.2,0.3-0.4,0.3-0.7v-11.8H491.5
		L491.5,383.4z"/>
	<polygon class="st1" points="498.3,383.4 498.3,396.2 496,396.2 496,383.4 498.3,383.4 498.3,383.4 	"/>
	<polygon class="st0" points="380.2,409 376.4,409 376.4,404 380.2,404 380.2,405 378,405 378,405.9 380.1,405.9 380.1,406.9 
		378,406.9 378,408 380.2,408 380.2,409 	"/>
	<polygon class="st0" points="385.1,409 381.2,409 381.2,404 382.8,404 382.8,407.8 385.1,407.8 385.1,409 	"/>
	<polygon class="st0" points="393.5,409 392,409 392,407.1 389.7,407.1 389.7,409 388.2,409 388.2,404 389.7,404 389.7,405.8 
		392,405.8 392,404 393.5,404 393.5,409 	"/>
	<path class="st0" d="M397.9,407.1l-0.7-1.8l-0.7,1.8H397.9L397.9,407.1z M400.3,409h-1.6l-0.4-1h-2.2l-0.4,1h-1.6l2.2-5h1.7
		L400.3,409L400.3,409z"/>
	<polygon class="st0" points="406.2,409 404.4,409 402.4,406.7 402.4,409 400.9,409 400.9,404 402.4,404 402.4,406.2 404.3,404 
		405.9,404 404,406.4 406.2,409 	"/>
	<polygon class="st0" points="410.7,409 406.9,409 406.9,404 410.6,404 410.6,405 408.4,405 408.4,405.9 410.5,405.9 410.5,406.9 
		408.4,406.9 408.4,408 410.7,408 410.7,409 	"/>
	<polygon class="st0" points="415.5,409 411.7,409 411.7,404 415.4,404 415.4,405 413.2,405 413.2,405.9 415.3,405.9 415.3,406.9 
		413.2,406.9 413.2,408 415.5,408 415.5,409 	"/>
	<polygon class="st0" points="422.3,409 420.8,409 420.8,406.1 419.5,407.8 419.3,407.8 418,406.1 418,409 416.5,409 416.5,404 
		417.9,404 419.4,405.9 421,404 422.3,404 422.3,409 	"/>
	<polygon class="st0" points="425.8,404 428.5,404 428.5,404.6 426.5,404.6 426.5,406 428.5,406 428.5,406.7 426.5,406.7 426.5,409 
		425.8,409 425.8,404 	"/>
	<path class="st0" d="M431.7,404.6c-0.6,0-1.1,0.2-1.4,0.5c-0.4,0.4-0.6,0.8-0.6,1.4c0,0.5,0.2,1,0.6,1.4c0.4,0.4,0.8,0.5,1.4,0.5
		c0.6,0,1-0.2,1.4-0.6c0.4-0.4,0.6-0.8,0.6-1.4c0-0.5-0.2-1-0.6-1.4C432.8,404.8,432.3,404.6,431.7,404.6L431.7,404.6z M431.7,403.9
		c0.8,0,1.4,0.2,2,0.7c0.5,0.5,0.8,1.1,0.8,1.9s-0.3,1.4-0.8,1.9c-0.5,0.5-1.2,0.7-2,0.7c-0.8,0-1.4-0.2-1.9-0.7
		c-0.5-0.5-0.8-1.1-0.8-1.8c0-0.8,0.3-1.4,0.8-1.9C430.3,404.1,430.9,403.9,431.7,403.9L431.7,403.9z"/>
	<path class="st0" d="M436.3,404.6h-0.2v1.6h0.3c0.4,0,0.6,0,0.8-0.1c0.1-0.1,0.2-0.2,0.3-0.3c0.1-0.1,0.1-0.3,0.1-0.4
		c0-0.2,0-0.3-0.1-0.4c-0.1-0.1-0.2-0.2-0.4-0.3C436.9,404.6,436.7,404.6,436.3,404.6L436.3,404.6z M435.4,409V404h1.3
		c0.5,0,0.9,0.1,1.2,0.4c0.3,0.3,0.5,0.6,0.5,1c0,0.3-0.1,0.6-0.2,0.8c-0.1,0.2-0.4,0.4-0.6,0.5c0.2,0.1,0.3,0.3,0.5,0.4
		c0.2,0.2,0.4,0.5,0.7,1c0.2,0.3,0.3,0.5,0.4,0.6l0.3,0.4h-0.9l-0.2-0.3c0,0,0,0,0-0.1l-0.1-0.2l-0.2-0.4l-0.2-0.4
		c-0.1-0.2-0.3-0.4-0.4-0.5c-0.1-0.1-0.2-0.2-0.3-0.3c-0.1-0.1-0.3-0.1-0.5-0.1h-0.2v2.2H435.4L435.4,409z"/>
	<path class="st0" d="M446.3,407.9v0.8c-0.5,0.3-1.1,0.4-1.8,0.4c-0.6,0-1-0.1-1.4-0.3c-0.4-0.2-0.7-0.5-0.9-0.9
		c-0.2-0.4-0.3-0.8-0.3-1.3c0-0.7,0.3-1.4,0.8-1.9c0.5-0.5,1.2-0.8,1.9-0.8c0.5,0,1.1,0.1,1.8,0.4v0.8c-0.6-0.3-1.2-0.5-1.7-0.5
		c-0.6,0-1.1,0.2-1.4,0.5c-0.4,0.4-0.6,0.8-0.6,1.4c0,0.6,0.2,1,0.6,1.4c0.4,0.4,0.9,0.5,1.4,0.5
		C445.1,408.4,445.7,408.2,446.3,407.9L446.3,407.9z"/>
	<path class="st0" d="M449.7,404.6c-0.6,0-1.1,0.2-1.4,0.5c-0.4,0.4-0.6,0.8-0.6,1.4c0,0.5,0.2,1,0.6,1.4c0.4,0.4,0.8,0.5,1.4,0.5
		c0.6,0,1-0.2,1.4-0.6c0.4-0.4,0.6-0.8,0.6-1.4c0-0.5-0.2-1-0.6-1.4C450.7,404.8,450.2,404.6,449.7,404.6L449.7,404.6z M449.7,403.9
		c0.8,0,1.4,0.2,2,0.7c0.5,0.5,0.8,1.1,0.8,1.9s-0.3,1.4-0.8,1.9c-0.5,0.5-1.2,0.7-2,0.7c-0.8,0-1.4-0.2-1.9-0.7
		c-0.5-0.5-0.8-1.1-0.8-1.8c0-0.8,0.3-1.4,0.8-1.9C448.2,404.1,448.9,403.9,449.7,403.9L449.7,403.9z"/>
	<polygon class="st0" points="457.3,404 458,404 458,409 457.4,409 454,405.1 454,409 453.3,409 453.3,404 453.9,404 457.3,407.9 
		457.3,404 	"/>
	<path class="st0" d="M460.3,406.9l-0.6-0.3c-0.3-0.2-0.6-0.4-0.7-0.6c-0.1-0.2-0.2-0.4-0.2-0.7c0-0.4,0.1-0.7,0.4-1
		c0.3-0.2,0.6-0.4,1.1-0.4c0.4,0,0.8,0.1,1.2,0.4v0.8c-0.4-0.4-0.8-0.5-1.2-0.5c-0.2,0-0.4,0.1-0.6,0.2c-0.2,0.1-0.2,0.2-0.2,0.4
		c0,0.2,0.1,0.3,0.2,0.4c0.1,0.1,0.3,0.3,0.5,0.4l0.6,0.3c0.6,0.4,0.9,0.8,0.9,1.4c0,0.4-0.1,0.7-0.4,1c-0.3,0.3-0.6,0.4-1.1,0.4
		c-0.5,0-1-0.2-1.4-0.5v-0.9c0.4,0.5,0.8,0.7,1.4,0.7c0.2,0,0.4-0.1,0.6-0.2c0.2-0.1,0.2-0.3,0.2-0.5
		C461,407.5,460.8,407.2,460.3,406.9L460.3,406.9z"/>
	<polygon class="st0" points="462.1,404 466.3,404 466.3,404.6 464.5,404.6 464.5,409 463.8,409 463.8,404.6 462.1,404.6 462.1,404 
			"/>
	<path class="st0" d="M467.9,404.6h-0.2v1.6h0.3c0.4,0,0.6,0,0.8-0.1c0.1-0.1,0.2-0.2,0.3-0.3c0.1-0.1,0.1-0.3,0.1-0.4
		c0-0.2,0-0.3-0.1-0.4c-0.1-0.1-0.2-0.2-0.4-0.3S468.3,404.6,467.9,404.6L467.9,404.6z M467,409V404h1.3c0.5,0,0.9,0.1,1.2,0.4
		c0.3,0.3,0.5,0.6,0.5,1c0,0.3-0.1,0.6-0.2,0.8c-0.1,0.2-0.4,0.4-0.6,0.5c0.2,0.1,0.3,0.3,0.5,0.4c0.2,0.2,0.4,0.5,0.7,1
		c0.2,0.3,0.3,0.5,0.4,0.6l0.3,0.4H470l-0.2-0.3c0,0,0,0,0-0.1l-0.1-0.2l-0.2-0.4l-0.2-0.4c-0.1-0.2-0.3-0.4-0.4-0.5
		c-0.1-0.1-0.2-0.2-0.3-0.3c-0.1-0.1-0.3-0.1-0.5-0.1h-0.2v2.2H467L467,409z"/>
	<path class="st0" d="M474.8,404h0.7v2.9c0,0.4,0,0.7-0.1,0.9c-0.1,0.2-0.1,0.4-0.2,0.5c-0.1,0.1-0.2,0.2-0.3,0.4
		c-0.4,0.3-0.9,0.5-1.6,0.5c-0.7,0-1.2-0.2-1.6-0.5c-0.1-0.1-0.2-0.2-0.3-0.4c-0.1-0.1-0.2-0.3-0.2-0.5c-0.1-0.2-0.1-0.5-0.1-0.9
		V404h0.7v2.9c0,0.5,0.1,0.8,0.2,1c0.1,0.2,0.3,0.3,0.5,0.4c0.2,0.1,0.5,0.2,0.8,0.2c0.4,0,0.8-0.1,1.1-0.3c0.1-0.1,0.2-0.3,0.3-0.4
		c0.1-0.2,0.1-0.4,0.1-0.8V404L474.8,404z"/>
	<path class="st0" d="M480.9,407.9v0.8c-0.5,0.3-1.1,0.4-1.8,0.4c-0.6,0-1-0.1-1.4-0.3c-0.4-0.2-0.7-0.5-0.9-0.9
		c-0.2-0.4-0.3-0.8-0.3-1.3c0-0.7,0.3-1.4,0.8-1.9c0.5-0.5,1.2-0.8,1.9-0.8c0.5,0,1.1,0.1,1.8,0.4v0.8c-0.6-0.3-1.2-0.5-1.7-0.5
		c-0.6,0-1.1,0.2-1.4,0.5c-0.4,0.4-0.6,0.8-0.6,1.4c0,0.6,0.2,1,0.6,1.4c0.4,0.4,0.9,0.5,1.4,0.5
		C479.7,408.4,480.3,408.2,480.9,407.9L480.9,407.9z"/>
	<polygon class="st0" points="481.3,404 485.6,404 485.6,404.6 483.8,404.6 483.8,409 483.1,409 483.1,404.6 481.3,404.6 481.3,404 
			"/>
	<polygon class="st0" points="486.3,404 487,404 487,409 486.3,409 486.3,404 	"/>
	<path class="st0" d="M490.6,404.6c-0.6,0-1.1,0.2-1.4,0.5c-0.4,0.4-0.6,0.8-0.6,1.4c0,0.5,0.2,1,0.6,1.4c0.4,0.4,0.8,0.5,1.4,0.5
		c0.6,0,1-0.2,1.4-0.6c0.4-0.4,0.6-0.8,0.6-1.4c0-0.5-0.2-1-0.6-1.4C491.7,404.8,491.2,404.6,490.6,404.6L490.6,404.6z M490.6,403.9
		c0.8,0,1.4,0.2,2,0.7c0.5,0.5,0.8,1.1,0.8,1.9s-0.3,1.4-0.8,1.9c-0.5,0.5-1.2,0.7-2,0.7c-0.8,0-1.4-0.2-1.9-0.7
		c-0.5-0.5-0.8-1.1-0.8-1.8c0-0.8,0.3-1.4,0.8-1.9C489.2,404.1,489.8,403.9,490.6,403.9L490.6,403.9z"/>
	<polygon class="st0" points="498.3,404 499,404 499,409 498.3,409 494.9,405.1 494.9,409 494.3,409 494.3,404 494.8,404 
		498.3,407.9 498.3,404 	"/>
</g>
<g>
	<path class="st2" d="M307.7,491.9c-20.4,6.2-49.3,12.4-65.6-5.1c-17.8-19.2-5.4-51.2,2.8-72.4c1.7-4.4,3.3-8.5,4-11
		c1.3-4.4,2.9-8.9,4.6-13.7c7-19.3,15.6-43.3,3.8-80.1c-5.9-18.4-23.3-34.7-41.9-47.2c-0.7-0.5-1.4-1-2.1-1.4v428.2h119.4
		c-3.9-24.7-9-70.2-5.3-121.6c0.5-7.1,1.2-14.4,2.1-21.7c0.4-3.4,0.8-6.7,1.4-10.1c0-0.1,0-0.2,0-0.3c0.7-4.4,1.5-8.6,2.4-12.6
		c0.3-1.2,0.6-2.3,0.8-3.4c1.6-5.8,3.4-11.2,5.6-16c0.6-1.3,1.2-2.6,1.8-3.8c2.1-4.2,4.5-7.9,7.2-11.2
		C345,485.8,333,484.2,307.7,491.9"/>
	<path class="st3" d="M519.5,491.8c-27.2-77.7-48-180.5,33.1-286.6c37.6-49.2,96.2-83.3,145.7-105.1H331.1c4.6,5.7,9,11.7,13,18
		c54.3,85.5,40.4,168.1,22.3,230.4c-3,10.3-4.1,16.9-4.4,21c6-2.8,15.4-8.9,28-18.2c15.8-11.8,45.4-33.6,71.7-22.3
		c16.8,7.2,26.7,25,30.4,54.4c6.6,53.8,1.4,104.2-1.7,126.6c21.3,11.8,31.3,14.9,35.9,14.8C526.7,521.6,526.8,512.5,519.5,491.8"/>
	<path class="st4" d="M460.2,387.3c-2.3-18.7-7.2-27.2-11.1-28.8c-6.2-2.7-19.7,3.6-39.9,18.6c-20.3,15-48.1,35.6-67.7,21.9
		c-17-11.8-12-38-5.7-59.5c17.2-59.4,28.5-130-18.6-204.2c-8.4-13.2-18.8-24.9-30.1-35.3h-71.7h-2.1v123.4c0.7,0.4,1.4,0.8,2.1,1.2
		c27.4,15.4,61.4,40.7,72.5,75.1c15.2,47.3,3.6,79.6-4.1,100.9c-1.6,4.4-3,8.2-3.9,11.5c-1.1,3.9-2.9,8.5-4.9,13.8
		c-8.5,22.1-11.6,35.1-9.2,38.9c0.4,0.3,7,4,32.7-3.8c35.3-10.7,59.3-9.2,73.4,4.5c1.4,1.4,2.7,2.8,3.8,4.3
		c28.8-8.3,62,8.5,84.6,21.9C462.8,467.8,465.2,428.3,460.2,387.3"/>
	<path class="st5" d="M771.9,106.8c-45.7,14.5-143.2,51.7-193.8,117.9c-71.3,93.3-54.3,182-28.3,256.4c7.8,22.4,16,53.8-2.8,69
		c-18.3,14.7-46.5,2.9-77.5-15.1c-5.3-3.1-10.7-6.3-16.2-9.7c-2.8-1.8-6.4-4-10.4-6.3c-9.6-5.6-21.9-12.2-33.6-16
		c-9.8-3.2-19.2-4.5-26.4-1.8c-0.4,0.2-0.9,0.3-1.3,0.6c-0.8,0.4-1.6,0.8-2.3,1.3c-5.1,3.3-8.8,9.3-11.4,16.1
		c-2,5.1-3.4,10.7-4.4,16c-0.3,1.8-0.6,3.5-0.8,5.1c0,0.1,0,0.1,0,0.2c-9.2,62.8-1.6,123.1,2.6,148.4c0,0,0,0.1,0,0.1H418l42.1,0.1
		c0,0,0-0.1,0-0.1c-4.4-17-9.7-47.6,10.8-68.1c20.2-20.3,57.5-22.3,114-6.2c51.6,14.8,64.6,5.9,67.4,2.8
		c10.5-11.7-5.9-51.6-13.8-70.8c-3.4-8.2-6.3-15.4-8-21.2c-1.7-5.7-4.2-12.1-6.8-19c-12.6-32.9-31.7-82.5-6.8-154.9
		c23.4-68.3,111.3-113.3,155.2-132c7.9-3.4,14.3-5.9,18.7-7.5V101.2C786.3,102.4,780,104.2,771.9,106.8"/>
	<path class="st6" d="M771.9,255.1c-41.7,19.2-107.5,56.6-124.8,107.2c-21,61.4-5.8,101.1,6.4,133c2.8,7.4,5.6,14.4,7.6,21.2
		c1.3,4.3,4.1,11,7,18.2c13.5,32.8,31.9,77.7,8,104.4c-17.2,19.2-49,21.3-100.2,6.6c-59.3-17-77.3-7.1-82.4-2
		c-10.3,10.3-3.3,34.4-0.7,43.5c0.2,0.7,0.4,1.3,0.5,1.9c0,0,0.1,0.1,0.1,0.1c0,0.1,0.1,0.1,0.2,0.2l296.9,0.7V246.9
		C785.3,249.1,779,251.8,771.9,255.1"/>
	<path class="st7" d="M771.9,100.1h-30.3h-43.3c-49.5,21.8-108.1,55.9-145.7,105.1c-81.1,106.1-60.3,208.9-33.1,286.6
		c7.2,20.7,7.2,29.8,6.8,33c-4.6,0.1-14.7-3-35.9-14.8c3.1-22.3,8.3-72.7,1.7-126.6c-3.6-29.4-13.5-47.2-30.3-54.4
		c-26.3-11.3-55.8,10.6-71.7,22.3c-12.6,9.3-21.9,15.4-27.9,18.2c0.3-4.1,1.4-10.7,4.4-21c18.1-62.4,32-144.9-22.3-230.4
		c-4-6.3-8.4-12.3-13-18h-21.3H287c11.3,10.4,21.7,22.1,30.1,35.3c47.1,74.2,35.8,144.8,18.5,204.2c-6.2,21.5-11.2,47.7,5.7,59.5
		c19.7,13.7,47.5-6.9,67.8-21.9c20.3-15,33.7-21.3,39.9-18.6c3.8,1.6,8.8,10.1,11.1,28.8c5,41,2.6,80.4,0,104.6
		c-22.6-13.4-55.9-30.3-84.7-21.9c-1.1-1.5-2.3-2.9-3.8-4.3c-14.1-13.8-38.1-15.2-73.4-4.5c-25.7,7.8-32.2,4-32.7,3.8
		c-2.4-3.8,0.7-16.8,9.2-38.9c2-5.3,3.8-9.9,4.9-13.8c1-3.4,2.3-7.2,3.9-11.5c7.7-21.4,19.3-53.7,4.1-100.9
		c-11-34.3-45.1-59.6-72.5-75.1c-0.7-0.4-1.4-0.8-2.1-1.2V242v19c0.7,0.5,1.4,0.9,2.1,1.4c18.6,12.6,36,28.9,42,47.3
		c11.8,36.8,3.2,60.8-3.8,80.1c-1.7,4.8-3.4,9.2-4.6,13.7c-0.7,2.5-2.3,6.6-4,11c-8.2,21.2-20.6,53.2-2.8,72.4
		c16.2,17.5,45.2,11.3,65.6,5.1c25.4-7.7,37.4-6.1,41.1-3.7c-2.6,3.3-5,7.1-7.2,11.2c-0.6,1.3-1.2,2.6-1.8,3.8
		c-2.2,4.9-4.1,10.2-5.6,16.1c-0.3,1.1-0.6,2.3-0.9,3.4c-1,4-1.8,8.2-2.4,12.6c0,0.1,0,0.2-0.1,0.3c-0.5,3.4-0.9,6.8-1.3,10.1
		c-0.9,7.3-1.6,14.6-2.2,21.7c-3.8,51.3,1.4,96.9,5.3,121.6h16.3h3.2h1.4h11.8c0,0,0-0.1,0-0.1c-4.2-25.3-11.8-85.6-2.6-148.4
		c0-0.1,0-0.1,0-0.2c0.2-1.6,0.5-3.4,0.8-5.1c1-5.4,2.4-10.9,4.4-16c2.6-6.8,6.3-12.8,11.4-16.1c0.7-0.5,1.4-0.9,2.3-1.3
		c0.4-0.2,0.9-0.4,1.3-0.5c7.2-2.7,16.6-1.4,26.4,1.7c11.7,3.8,24,10.4,33.6,16c4,2.4,7.6,4.6,10.4,6.3c5.4,3.4,10.8,6.6,16.2,9.7
		c31,18,59.3,29.8,77.5,15.1c18.8-15.2,10.6-46.6,2.8-69c-26.1-74.4-43.1-163.1,28.3-256.5c50.6-66.2,148.1-103.4,193.8-117.9
		c8-2.6,14.4-4.4,18.7-5.6v-1.2H771.9z"/>
	<path class="st7" d="M616.7,351.9c-24.8,72.4-5.7,122.1,6.8,154.9c2.6,6.8,5.1,13.3,6.8,18.9c1.7,5.8,4.7,13,8,21.2
		c7.9,19.2,24.3,59.1,13.8,70.8c-2.8,3.1-15.8,12-67.4-2.8c-56.5-16.2-93.8-14.2-114,6.2c-20.5,20.5-15.2,51.1-10.7,68.1
		c0,0,0,0.1,0,0.1l16.6,0l16.2,0h0.4h0.2c-0.1-0.1-0.2-0.1-0.2-0.2c0,0-0.1,0-0.1-0.1c-0.2-0.6-0.3-1.2-0.5-1.9
		c-2.6-9.1-9.6-33.1,0.7-43.5c5-5,23.1-14.9,82.4,2.1c51.1,14.6,83,12.5,100.1-6.7c23.9-26.7,5.4-71.6-8-104.4
		c-3-7.2-5.7-13.9-7-18.2c-2-6.8-4.7-13.8-7.6-21.2c-12.2-31.9-27.5-71.7-6.5-133c17.4-50.6,83.2-88,124.8-107.2
		c7.1-3.2,13.4-6,18.7-8.2v-17.3v-17.2c-4.4,1.6-10.8,4.2-18.7,7.5C728.1,238.6,640.1,283.6,616.7,351.9"/>
	<path class="st7" d="M505.4,228.6c40.3-49.6-25.7,1.1-43.9-7.5c-18.2-8.6-20-36.4-9.6-65.3c10.3-28.9,56.7-45.3,20.3-38.9
		c0,0-53.6,6.4-61,72.1S465.1,278.2,505.4,228.6"/>
	<path class="st8" d="M249.7,824.6c21.3,0,36-16.3,36-38.8v-53.6h-16v52.2c0,15.6-7.3,25.5-19.9,25.5c-12.4,0-20.3-10.6-20.3-25.5
		v-9.8h-15.8v11.3C213.6,807.8,229.6,824.6,249.7,824.6 M415.4,789.5c0-15.6-10.4-25.8-26.8-25.8c-16.4,0-25.8,10.4-25.8,26.7h-11.4
		h-3.8V780c0-15.2-10.7-26.1-25.3-26.1c-15.2,0-25.9,10.4-25.9,25.8c0,15.2,11,26,25.9,26c5.3,0,8.5-0.2,9.8-0.7
		c-1.2,4.4-4.9,6.7-11,6.7h-1.4v12.8h1.7c15.5,0,24.2-6.3,26-18.9h4h16c4.7,6.5,12,9.8,21.7,9.8
		C405.1,815.5,415.4,804.8,415.4,789.5 M331.7,790.4h-9.2c-5.9,0-9.8-4.9-9.8-11.4c0-6,3.2-10.7,9.2-10.7c5.8,0,9.8,4.3,9.8,11.1
		V790.4z M389.2,802.5c-6.8,0-10.7-5.4-10.7-13.1c0-7.5,4-12.9,9.8-12.9h1.2c6.7,0,10.2,4.6,10.2,13.6
		C399.6,797.5,395.5,802.5,389.2,802.5 M586.2,779.2c0,7.4-2.7,11.2-8.1,11.2h-6.5h-5.2h-1c1.4-3.5,2.1-7.4,2.1-11.6V754h-16.1v26.1
		c0,6.8-2.8,10.2-8.1,10.2H533c1.3-3.4,2-7.3,2-11.5V754h-16v26.1c0,6.8-2.7,10.2-8.1,10.2h-8.5c0.1-1.5,0.2-3,0.2-4.6v-3.8
		c0.2-1,0.2-2.2,0.2-3.2V754h-0.2v-0.1h-16v30.5c0,7-1.5,12.6-4.6,17.3c-3.6,5.4-8.8,8.1-15.4,8.1c-6.7,0-11.9-2.8-15.4-8.1
		c-3.1-4.7-4.7-10.4-4.7-17.3v-30.5h-16v31.9c0,11.1,3.4,20.2,10.4,27.6c7,7.4,15.5,11.2,25.7,11.2c10.6-0.1,19.3-4,26.1-11.7
		c1.9-2.3,3.6-4.7,5.1-7.2h68.6h5.2h9.8c6.7,0,12-2.3,15.7-7c3.3-4,5-9,5-15v-51.5h-16V779.2z M693.5,732.2h-14.2v13.1h14.2V732.2z
		 M673.9,805.7h3.5v-0.2c5-0.7,9-2.9,12.1-6.7c3.3-4,5-9,5-15V754h-16v25.2c0,6.7-2.3,10.4-6.7,11.1h-11c0-17.2-7.8-28.5-23.6-34.1
		c-4.2-1.5-11.3-2.2-21.3-2.2v13.3c20.3,0,29,7.1,29,23.1h-30.3v15.3h45.7H673.9z M726.5,727.2h-8.9c-1-0.4-1.6-1.5-1.6-3.2
		c0-2.3,0.9-3.4,2.6-3.4c1.2,0,2,0.8,2.5,2.4l5.2-2.4c-1.5-3.6-4-5.4-7.6-5.4c-4.9,0-8.6,4-8.6,9.1c0,0.9,0.1,1.9,0.4,3h-4.4v5.8
		h20.4V727.2z M708.8,739.9l14.4,50.5h-17v15.3h37.9c5.6,0,10.3-1.7,14-5.1c3.8-3.6,5.6-8,5.6-13.6v-54.8H748v46.5
		c0,7.6-2.8,11.6-8.1,11.6l-14.2-50.5H708.8z M775.4,805.7h16v-73.6h-16V805.7z M225.4,838L210,898.8H223l2-10h14.4l2,10h13.2
		L239.3,838H225.4z M227.7,875.7l4.5-21.9l4.5,21.9H227.7z M271.4,838h-12.7v60.8h32.4v-14.9h-19.7V838z M308.2,838l-15.4,60.8h13
		l2-10h14.4l2,10h13.2L322,838H308.2z M310.5,875.7l4.5-21.9l4.5,21.9H310.5z M368.8,871.6L353.3,838h-11.8v60.8h11.9v-33.5
		l15.4,33.5h12V838h-12V871.6z M422.8,846.7c-1.5-2.8-3.4-5-5.7-6.4c-2.3-1.5-5.2-2.2-9-2.2h-18.8v60.8h18.8c2.2,0,4.8-0.6,7.5-1.6
		c2-0.8,3.9-2.4,5.7-4.8c1.8-2.4,3.2-5.4,4.2-9c1-3.6,1.5-8.6,1.5-15.1c0-4.2-0.3-8.1-1-11.8C425.4,852.7,424.3,849.5,422.8,846.7
		 M413.4,879.2c-0.6,2.2-1.5,3.7-2.6,4.5c-1.1,0.9-3,1.3-5.6,1.3H402v-33.2h3.2c3.2,0,5.6,1.2,7,3.6c1.4,2.4,2.1,6.8,2.1,13.2
		C414.3,873.4,414,877,413.4,879.2 M442.5,838l-15.4,60.8h12.9l2-10h14.4l2,10h13.2L456.4,838H442.5z M444.8,875.7l4.5-21.9
		l4.5,21.9H444.8z M488.5,838h-12.7v60.8h32.4v-14.9h-19.7V838z M539.2,875.1c0,3.4-0.6,6-1.9,7.8c-1.2,1.8-2.9,2.8-5.1,2.8
		s-3.9-0.9-5.2-2.8c-1.2-1.9-1.9-4.4-1.9-7.8V838h-12.6v36.2c0,3,0.4,6.4,1.2,10.3c0.5,2.4,1.4,4.8,2.7,7c1.3,2.3,2.8,4,4.3,5.2
		c1.6,1.2,3.6,2,5.9,2.5c2.4,0.4,4.5,0.6,6.5,0.6c3.4,0,6.4-0.7,8.9-2c1.8-1,3.4-2.6,5-5c1.6-2.4,2.8-5.2,3.6-8.4
		c0.8-3.2,1.1-6.6,1.1-10.2V838h-12.6V875.1z M588.3,863.3c-2.4-1.8-6.4-3.6-11.9-5.4c-2.2-0.7-3.6-1.4-4.2-2.2
		c-0.6-0.8-1-1.7-1-2.6c0-1.4,0.4-2.5,1.1-3.4c0.8-0.9,1.8-1.4,3.3-1.4c1.8,0,3.2,0.6,4.2,1.9c1,1.2,1.7,3.2,2,6l12-1
		c-0.5-6.3-2.2-10.9-4.9-13.8c-2.7-2.9-6.7-4.3-12-4.3c-4.3,0-7.6,0.8-10.1,2.4c-2.4,1.6-4.3,3.8-5.5,6.5c-1.2,2.8-1.8,5.7-1.8,8.8
		c0,4.8,1.2,8.7,3.6,11.7c2.4,3.1,6.3,5.5,11.9,7.4c3.4,1.1,5.6,2.3,6.5,3.5c0.9,1.2,1.4,2.7,1.4,4.2c0,1.6-0.5,3.1-1.4,4.4
		c-1,1.3-2.4,1.9-4.2,1.9c-2.4,0-4.3-1.2-5.6-3.7c-0.8-1.5-1.3-3.7-1.6-6.6l-12,1.1c0.4,6.2,1.8,11.2,4.6,15.2c2.6,4,7.5,6,14.4,6
		c4,0,7.2-0.8,9.9-2.6c2.6-1.7,4.6-4.2,6.1-7.5c1.4-3.3,2.2-6.9,2.2-10.8c0-3.3-0.6-6.3-1.6-9C592.5,867.3,590.7,865.1,588.3,863.3
		 M643.6,875l-6.3-37h-16.7v60.8h10.4v-46.3l8,46.3h9.4l8-46.3v46.3h10.4V838H650L643.6,875z M686,838l-15.4,60.8h13l2-10h14.4l2,10
		h13.3L699.8,838H686z M688.3,875.7l4.5-21.9l4.5,21.9H688.3z M732,838h-12.7v60.8h32.4v-14.9H732V838z M770.2,838h-12.7v60.8h32.4
		v-14.9h-19.7V838z"/>
</g>
</svg>
