<svg xmlns="http://www.w3.org/2000/svg" width="505.759" height="187.351" viewBox="0 0 505.759 187.351">
  <g id="logo-green-en" transform="translate(0)">
    <g id="Wakame">
      <path id="Path_850" data-name="Path 850" d="M475.844,129.125h-4.505v58.226H505.76v-5.023H475.844V160.75H497.21v-5.024H475.844V134.148H505.76v-5.023Z" fill="#578548"/>
      <path id="Path_851" data-name="Path 851" d="M216.094,164.056l-11.963-8.293V129.124h-4.505v29.17l-.106.188.106.072v28.8h4.505V161.677l37.032,25.673,2.379-4.266L219.92,166.708,239.4,131.777l-3.826-2.653Z" fill="#578548"/>
      <path id="Path_852" data-name="Path 852" d="M138.392,137.833l14.879,35.975H123.514Zm-24.585,47.452,4.107,2.066,3.706-8.961h33.546l3.706,8.961,4.106-2.066-24.586-59.409Z" fill="#578548"/>
      <path id="Path_853" data-name="Path 853" d="M297.987,137.833l14.878,35.975H283.109ZM273.4,185.285l4.108,2.066,3.7-8.961h33.547l3.705,8.961,4.107-2.066-24.586-59.409Z" fill="#578548"/>
      <path id="Path_854" data-name="Path 854" d="M65.546,175.392l-18-43.519-2.483-6-2.476,5.992-18,43.526L4.107,125.874,0,127.941l24.585,59.41,20.483-49.492,20.478,49.492,24.585-59.41-4.107-2.067Z" fill="#578548"/>
      <path id="Path_855" data-name="Path 855" d="M397.994,175.366l-20.478-49.492-24.585,59.41,4.107,2.067,20.478-49.518,18,43.519,2.482,6,2.476-5.992,18-43.526,20.477,49.518,4.108-2.067-24.585-59.41Z" fill="#578548"/>
    </g>
    <g id="Icon">
      <path id="Path_856" data-name="Path 856" d="M300.863,57.631a1.064,1.064,0,0,0-1.287.619c-.082.2-8.325,19.988-25.965,28.513a1.064,1.064,0,0,0-.572,1.205,1.054,1.054,0,0,0,1.053.818l3.4-.058-1.155,2.336a1.065,1.065,0,0,0,1.491,1.392,49.568,49.568,0,0,0,23.778-33.607,1.065,1.065,0,0,0-.745-1.218" fill="#578548"/>
      <path id="Path_857" data-name="Path 857" d="M271.536,49.367c-4.712-1.514-10.216-4.688-16.044-8.048-12.776-7.367-25.4-15.743-41.839-12.264,7.814-15.517,20.7-26.926,39.226-26.926,17.7,0,32.92,10.482,41.031,26.126-2.685.808-3.452,2.819-3.452,5.727a6.473,6.473,0,0,0,8.907,6c.1.5.2,1,.285,1.505.067.39.123.783.18,1.176-2.481,1.953-14.956,10.992-28.294,6.706m-34.574-9.832a1.816,1.816,0,0,1-1.671,1.564c-13.071.736-25.311,10.608-29.508,14.351a47.57,47.57,0,0,1,1.788-20c11.854-3.579,23.726-.164,28.4,2.182a1.827,1.827,0,0,1,.986,1.9M213.139,75.5a47.275,47.275,0,0,1-4.919-9.854c4.836-8.322,10.431-12.786,14.072-15.005-3.312,4.826-8.487,13.99-9.153,24.859M302.031,42.99c0-.015,0-.029-.006-.044-.082-.609-.172-1.217-.277-1.822a49.145,49.145,0,0,0-3.993-12.665,49.6,49.6,0,0,0-91.993,5.673,1.086,1.086,0,0,0-.085.262,49.619,49.619,0,0,0-1.712,23.343,1.1,1.1,0,0,0,.019.117,49.143,49.143,0,0,0,2.024,7.925,1.054,1.054,0,0,0,.094.266,49.671,49.671,0,0,0,46.777,33.136c1.509,0,4.135-.1,6.244-.228,4.163-.261,4.986-.408,5.069-1.51s-1.13-1.272-1.519-1.332L261.95,96c-10.9-1.733-24.463-4.949-32.622-14.512-4.391-5.143-5.082-11.78-1.9-18.208a22.611,22.611,0,0,1,10.141-10.234,22.036,22.036,0,0,1,18.006-.39c14.881,5.871,26.695,4.821,33.986,2.906a35.608,35.608,0,0,0,12.5-5.7,1.062,1.062,0,0,0,.4-.84,49.647,49.647,0,0,0-.435-6.025" fill="#578548"/>
      <path id="Path_858" data-name="Path 858" d="M268.73,11.846c-11.646,3.4-17.18,15.6-17.41,16.112a1.066,1.066,0,0,0,.039.944l5.093,9.3a1.065,1.065,0,0,0,.934.553,1.091,1.091,0,0,0,.264-.033,1.066,1.066,0,0,0,.8-1.031c.006-13.846,11.17-23.924,11.283-24.024a1.064,1.064,0,0,0-1-1.818" fill="#578548"/>
    </g>
  </g>
</svg>
